<svg width="512" height="512" xmlns="http://www.w3.org/2000/svg">
 <defs>
  <linearGradient y2="0.8" x2="0.3" x1="0.7" id="a">
   <stop stop-color="#fd5" offset="0.3"/>
   <stop stop-color="#f85" offset="0.6"/>
   <stop stop-color="#d06" offset="1"/>
  </linearGradient>
  <radialGradient cy="0.7" cx="0.4" id="b">
   <stop stop-color="#74d" offset="0.4"/>
   <stop stop-color="#a2d" offset="1"/>
  </radialGradient>
  <linearGradient y2="0.8" x2="0.4" y1="0.2" x1="0.8" id="c">
   <stop stop-color="#fd5" offset="0.2"/>
   <stop stop-color="#f33" offset="1"/>
  </linearGradient>
 </defs>
 <g>
 </g>
 <g>
  <g stroke="null" id="svg_1" transform="rotate(-0.13270442187786102 256.458831787048,256.40478515624966) translate(-95,-2) scale(4) ">
   <path stroke="null" id="svg_2" fill="url(#a)" d="m67.380632,43.635958s-3.699748,-11.099245 -1.233249,-19.731991c-11.099245,2.466499 -40.697231,43.16373 -40.697231,43.16373a62.895721,59.195972 0 1 0 107.2927,-39.463982s6.166247,11.099245 6.166247,18.498741c-3.699748,-11.099245 -24.664989,-30.831236 -32.064485,-45.630229c-29.597986,16.032243 -19.731991,48.096728 -19.731991,48.096728"/>
   <circle stroke="null" id="svg_3" fill="url(#b)" r="32.064484" cy="65.834447" cx="87.112623"/>
   <path stroke="null" id="svg_4" fill="url(#a)" d="m34.082898,38.70296l53.029725,14.798993c-7.399497,13.565744 -19.731991,3.699748 -28.364737,17.265492a27.131487,27.131487 0 1 0 41.93048,-24.664989s40.697231,3.699748 20.96524,51.796476l-78.927963,0m44.396979,30.831236l1.233249,0"/>
   <path stroke="null" id="svg_5" fill="url(#c)" d="m51.34839,36.236461c19.731991,0 14.798993,8.632746 35.764233,17.265492c-22.19849,7.399497 -28.364737,-11.099245 -46.863478,0c6.166247,11.099245 14.798993,9.865995 14.798993,9.865995c1.233249,53.029725 88.793959,35.764233 82.627712,-20.96524a61.662471,57.469423 47 0 1 -108.525949,40.697231c-11.099245,-22.19849 -1.233249,-49.329977 19.731991,-62.895721"/>
  </g>
 </g>
</svg>
