<svg width="24" height="23" viewBox="0 0 24 23" fill="none" xmlns="http://www.w3.org/2000/svg">
<path d="M0.5 22V22.5H1H5H5.5V22V10V9.5H5H1H0.5V10V22ZM21 8.5H15.3046L16.1295 4.53176L16.1352 4.50445L16.1378 4.47667L16.1678 4.15667L16.17 4.13339V4.11C16.17 3.56168 15.9432 3.0561 15.5836 2.69644L15.5819 2.69478L14.5219 1.64478L14.1681 1.2943L13.8162 1.64672L7.2386 8.23429C6.77431 8.68744 6.5 9.31524 6.5 10V20C6.5 21.3761 7.62386 22.5 9 22.5H18C19.0353 22.5 19.924 21.8757 20.3005 20.9747C20.3009 20.9739 20.3012 20.9731 20.3015 20.9723L23.3196 13.9269L23.3227 13.9196L23.3256 13.9122C23.4366 13.6286 23.5 13.327 23.5 13V11C23.5 9.62386 22.3761 8.5 21 8.5Z" fill="#BDE4C2" stroke="#17D150"/>
</svg>
