<svg width="14" height="14" viewBox="0 0 14 14" fill="none" xmlns="http://www.w3.org/2000/svg">
<g clip-path="url(#clip0_3306_4417)">
<path d="M2.08801 12.3645H10.4058L10.0085 11.0783L10.9588 11.8938L11.8297 12.6743L13.4163 14.0002V1.44395C13.3767 0.663448 12.7047 0.000198364 11.8717 0.000198364L2.09092 0.00194836C1.25851 0.00194836 0.583008 0.666365 0.583008 1.44686V10.9202C0.583008 11.7433 1.25734 12.3645 2.08801 12.3645ZM8.24101 3.31528L8.22176 3.32228L8.22876 3.31528H8.24101ZM3.78959 4.05553C4.85884 3.27736 5.84993 3.3147 5.84993 3.3147L5.92984 3.39345C4.62143 3.70553 4.02818 4.29003 4.02818 4.29003C4.02818 4.29003 4.18684 4.21245 4.46393 4.09403C6.22618 3.40103 8.15059 3.4512 9.93209 4.32853C9.93209 4.32853 9.33768 3.78195 8.10976 3.43195L8.21826 3.3252C8.38801 3.32578 9.28634 3.35728 10.2477 4.0602C10.2477 4.0602 11.3233 5.8977 11.3233 8.1552C11.2878 8.11203 10.656 9.12703 9.03026 9.16203C9.03026 9.16203 8.75493 8.85053 8.55893 8.5787C9.50976 8.3057 9.86559 7.7597 9.86559 7.7597C9.55351 7.95628 9.26884 8.07295 9.03784 8.18961C8.68259 8.34595 8.32676 8.42295 7.97151 8.5017C6.28918 8.7747 5.34476 8.31795 4.45226 7.9557L4.14718 7.80053C4.14718 7.80053 4.50243 8.34653 5.41534 8.61953C5.17559 8.89312 4.93818 9.20403 4.93818 9.20403C3.31301 9.16553 2.72034 8.15053 2.72034 8.15053C2.72034 5.88953 3.78959 4.05553 3.78959 4.05553Z" fill="#888888"/>
<path d="M8.34723 7.45003C8.76197 7.45003 9.09972 7.10003 9.09972 6.66837C9.09972 6.23962 8.76372 5.88962 8.34723 5.88962V5.89137C7.93423 5.89137 7.59589 6.2402 7.59473 6.67187C7.59473 7.10003 7.93248 7.45003 8.34723 7.45003Z" fill="#888888"/>
<path d="M5.65191 7.4503C6.06666 7.4503 6.40441 7.1003 6.40441 6.66863C6.40441 6.23988 6.069 5.88988 5.65425 5.88988L5.65191 5.89164C5.23716 5.89164 4.89941 6.24047 4.89941 6.67213C4.89941 7.1003 5.23716 7.4503 5.65191 7.4503Z" fill="#888888"/>
</g>
<defs>
<clipPath id="clip0_3306_4417">
<rect width="14" height="14" fill="white" transform="translate(0.000976562 0.000198364)"/>
</clipPath>
</defs>
</svg>
