<svg width="30" height="30" viewBox="0 0 30 30" fill="none" xmlns="http://www.w3.org/2000/svg">
<circle cx="15" cy="15" r="15" fill="#F0F0F0"/>
<g clip-path="url(#clip0_3378_5425)">
<path d="M10.0879 20.3646H18.4056L18.0084 19.0783L18.9586 19.8938L19.8296 20.6743L21.4162 22.0002V9.44399C21.3766 8.66349 20.7046 8.00024 19.8716 8.00024L10.0908 8.00199C9.25839 8.00199 8.58289 8.66641 8.58289 9.44691V18.9202C8.58289 19.7433 9.25722 20.3646 10.0879 20.3646ZM16.2409 11.3153L16.2216 11.3223L16.2286 11.3153H16.2409ZM11.7895 12.0556C12.8587 11.2774 13.8498 11.3147 13.8498 11.3147L13.9297 11.3935C12.6213 11.7056 12.0281 12.2901 12.0281 12.2901C12.0281 12.2901 12.1867 12.2125 12.4638 12.0941C14.2261 11.4011 16.1505 11.4512 17.932 12.3286C17.932 12.3286 17.3376 11.782 16.1096 11.432L16.2181 11.3252C16.3879 11.3258 17.2862 11.3573 18.2476 12.0602C18.2476 12.0602 19.3232 13.8977 19.3232 16.1552C19.2876 16.1121 18.6559 17.1271 17.0301 17.1621C17.0301 17.1621 16.7548 16.8506 16.5588 16.5787C17.5096 16.3057 17.8655 15.7597 17.8655 15.7597C17.5534 15.9563 17.2687 16.073 17.0377 16.1897C16.6825 16.346 16.3266 16.423 15.9714 16.5017C14.2891 16.7747 13.3446 16.318 12.4521 15.9557L12.1471 15.8006C12.1471 15.8006 12.5023 16.3466 13.4152 16.6196C13.1755 16.8932 12.9381 17.2041 12.9381 17.2041C11.3129 17.1656 10.7202 16.1506 10.7202 16.1506C10.7202 13.8896 11.7895 12.0556 11.7895 12.0556Z" fill="#888888"/>
<path d="M16.3475 15.4501C16.7622 15.4501 17.1 15.1001 17.1 14.6684C17.1 14.2396 16.764 13.8896 16.3475 13.8896V13.8914C15.9345 13.8914 15.5961 14.2402 15.595 14.6719C15.595 15.1001 15.9327 15.4501 16.3475 15.4501Z" fill="#888888"/>
<path d="M13.652 15.4503C14.0668 15.4503 14.4045 15.1003 14.4045 14.6686C14.4045 14.2399 14.0691 13.8899 13.6544 13.8899L13.652 13.8916C13.2373 13.8916 12.8995 14.2405 12.8995 14.6721C12.8995 15.1003 13.2373 15.4503 13.652 15.4503Z" fill="#888888"/>
</g>
<defs>
<clipPath id="clip0_3378_5425">
<rect width="14" height="14" fill="white" transform="translate(8.0011 8.00024)"/>
</clipPath>
</defs>
</svg>
