<svg width="22" height="20" viewBox="0 0 22 20" fill="none" xmlns="http://www.w3.org/2000/svg">
<path d="M11 4.00001C14.79 4.00001 18.17 6.13001 19.82 9.50001C19.23 10.72 18.4 11.77 17.41 12.62L18.82 14.03C20.21 12.8 21.31 11.26 22 9.50001C20.27 5.11001 16 2.00001 11 2.00001C9.73 2.00001 8.51 2.20001 7.36 2.57001L9.01 4.22001C9.66 4.09001 10.32 4.00001 11 4.00001ZM9.93 5.14001L12 7.21001C12.57 7.46001 13.03 7.92001 13.28 8.49001L15.35 10.56C15.43 10.22 15.49 9.86001 15.49 9.49001C15.5 7.01001 13.48 5.00001 11 5.00001C10.63 5.00001 10.28 5.05001 9.93 5.14001ZM1.01 1.87001L3.69 4.55001C2.06 5.83001 0.77 7.53001 0 9.50001C1.73 13.89 6 17 11 17C12.52 17 13.98 16.71 15.32 16.18L18.74 19.6L20.15 18.19L2.42 0.450012L1.01 1.87001ZM8.51 9.37001L11.12 11.98C11.08 11.99 11.04 12 11 12C9.62 12 8.5 10.88 8.5 9.50001C8.5 9.45001 8.51 9.42001 8.51 9.37001ZM5.11 5.97001L6.86 7.72001C6.63 8.27001 6.5 8.87001 6.5 9.50001C6.5 11.98 8.52 14 11 14C11.63 14 12.23 13.87 12.77 13.64L13.75 14.62C12.87 14.86 11.95 15 11 15C7.21 15 3.83 12.87 2.18 9.50001C2.88 8.07001 3.9 6.89001 5.11 5.97001Z" fill="#666666"/>
</svg>
