<svg width="23" height="27" viewBox="0 0 23 27" fill="none" xmlns="http://www.w3.org/2000/svg">
<path fill-rule="evenodd" clip-rule="evenodd" d="M11.4996 0.962402L22.8996 7.50254V20.0695L11.4996 26.015L0.0996094 20.0695V7.50254L11.4996 0.962402ZM1.89961 9.50824V18.9781L10.5996 23.5156V14.0457L1.89961 9.50824ZM12.3996 14.0457V23.5156L21.0996 18.9781V9.50824L12.3996 14.0457ZM20.1255 7.9862L11.4996 12.4849L2.87376 7.9862L11.4996 3.03758L20.1255 7.9862Z" fill="#666666"/>
<path d="M13.9995 13.5C13.9995 14.8807 12.8802 16 11.4995 16C10.1188 16 8.99951 14.8807 8.99951 13.5C8.99951 12.1193 10.1188 11 11.4995 11C12.8802 11 13.9995 12.1193 13.9995 13.5Z" fill="#666666"/>
<path d="M2.69459 19.9386C2.88015 19.643 2.98515 19.3041 2.99916 18.9554C3.01317 18.6067 2.9357 18.2604 2.77445 17.9509C2.61319 17.6415 2.37377 17.3796 2.07996 17.1912C1.78615 17.0029 1.44818 16.8948 1.09964 16.8775L1.00077 18.8751L2.69459 19.9386Z" fill="#666666"/>
<path d="M1.47061 10.4484C1.81956 10.4445 2.16142 10.3493 2.46222 10.1724C2.76302 9.99549 3.0123 9.74295 3.18528 9.43987C3.35826 9.13679 3.44893 8.79372 3.44828 8.44475C3.44763 8.09578 3.35568 7.75305 3.18157 7.45062L1.44829 8.44848L1.47061 10.4484Z" fill="#666666"/>
<path d="M19.6545 7.47646C19.4901 7.78425 19.409 8.12972 19.4194 8.47854C19.4298 8.82735 19.5313 9.16738 19.7138 9.46483C19.8963 9.76228 20.1534 10.0068 20.4597 10.1741C20.7659 10.3414 21.1106 10.4257 21.4595 10.4185L21.4185 8.41895L19.6545 7.47646Z" fill="#666666"/>
<path d="M12.2599 2.29873C12.648 2.52013 12.8304 2.0863 12.9996 2.49983C13.1688 2.91337 13.5306 2.41324 13.409 2.84317C13.2874 3.2731 13.0253 3.64992 12.6645 3.91354C12.3038 4.17715 11.8651 4.31238 11.4186 4.29765C10.972 4.28292 10.5432 4.11908 10.2007 3.83226C9.85806 3.54544 9.62138 3.15217 9.52835 2.71516C9.43532 2.27815 10.1572 2.70022 10.3532 2.29873C10.5493 1.89725 11.0977 1.69534 11.4995 1.5L11.4845 2.29873L11.8458 2.84317L12.2599 2.29873Z" fill="#666666"/>
<path d="M21.6646 17.0031C21.3162 17.0235 20.9792 17.1347 20.6872 17.3257C20.3951 17.5167 20.158 17.7807 19.9996 18.0917C19.8412 18.4026 19.7669 18.7496 19.784 19.0981C19.8012 19.4467 19.9093 19.7847 20.0976 20.0785L21.7816 18.9997L21.6646 17.0031Z" fill="#666666"/>
</svg>