<svg width="30" height="30" viewBox="0 0 30 30" fill="none" xmlns="http://www.w3.org/2000/svg">
<circle cx="15" cy="15" r="15" fill="#F0F0F0"/>
<g clip-path="url(#clip0_3378_5435)">
<path d="M6.99887 14.5212C6.99234 15.0882 7.34189 15.5986 7.87297 15.7974V13.3674C7.87297 13.3324 7.89044 13.28 7.89044 13.245C7.35578 13.4422 7.00017 13.9513 6.99887 14.5212Z" fill="#888888"/>
<path d="M11.7734 17.5278H9.48315L10.3398 20.6397C10.4666 21.1146 10.8972 21.4447 11.3887 21.4439C11.7385 21.4481 12.0694 21.2858 12.2803 21.0069C12.4933 20.7414 12.559 20.3869 12.4552 20.0628L11.7734 17.5278Z" fill="#888888"/>
<path d="M7.8894 13.2279H7.90687V13.2104C7.90687 13.2279 7.90687 13.2279 7.8894 13.2279Z" fill="#888888"/>
<path d="M20.4237 12.9829H20.2838V16.1298H20.4237C21.2927 16.1298 21.9971 15.4253 21.9971 14.5563C21.9971 13.6874 21.2926 12.9829 20.4237 12.9829Z" fill="#888888"/>
<path d="M8.39758 13.3674V15.8499C8.41649 16.4928 8.94325 17.004 9.58637 17.0037H12.7682V12.2834H9.58637C8.95701 12.2834 8.39758 12.738 8.39758 13.3674Z" fill="#888888"/>
<path d="M13.2924 17.0736L19.7608 19.661V9.55615L13.2924 12.1436V17.0736Z" fill="#888888"/>
</g>
<defs>
<clipPath id="clip0_3378_5435">
<rect width="15" height="15" fill="white" transform="translate(6.9989 8.00024)"/>
</clipPath>
</defs>
</svg>
