<svg width="15" height="15" viewBox="0 0 15 15" fill="none" xmlns="http://www.w3.org/2000/svg">
<g clip-path="url(#clip0_3306_4427)">
<path d="M-0.000886746 6.52108C-0.00741192 7.08814 0.342137 7.59847 0.873219 7.79731V5.36726C0.873219 5.33229 0.890686 5.27986 0.890686 5.24489C0.356023 5.44212 0.000418289 5.95115 -0.000886746 6.52108Z" fill="#888888"/>
<path d="M4.7736 9.52777H2.4834L3.34004 12.6396C3.46689 13.1145 3.89742 13.4446 4.38898 13.4438C4.73873 13.448 5.06964 13.2858 5.28059 13.0068C5.49358 12.7414 5.55926 12.3868 5.4554 12.0627L4.7736 9.52777Z" fill="#888888"/>
<path d="M0.889648 5.2279H0.907116V5.21043C0.907116 5.2279 0.907116 5.2279 0.889648 5.2279Z" fill="#888888"/>
<path d="M13.4241 4.98282H13.2842V8.12966H13.4241C14.293 8.12966 14.9974 7.42521 14.9974 6.55626C14.9974 5.68727 14.293 4.98282 13.4241 4.98282Z" fill="#888888"/>
<path d="M1.39795 5.36732V7.84983C1.41686 8.49271 1.94362 9.00395 2.58674 9.00368H5.76854V4.2834H2.58674C1.95737 4.2834 1.39795 4.73795 1.39795 5.36732Z" fill="#888888"/>
<path d="M6.29248 9.07353L12.761 11.6609V1.5561L6.29248 4.14351V9.07353Z" fill="#888888"/>
</g>
<defs>
<clipPath id="clip0_3306_4427">
<rect width="15" height="15" fill="white" transform="translate(-0.000976562 0.000198364)"/>
</clipPath>
</defs>
</svg>
