<svg width="133" height="28" viewBox="0 0 133 28" fill="none" xmlns="http://www.w3.org/2000/svg">
<path d="M6.73277 23.9173C7.80685 23.9173 8.59003 23.7902 9.08232 23.536C9.5746 23.2586 9.82075 22.7964 9.82075 22.1493C9.82075 21.5484 9.55223 21.0515 9.01519 20.6586C8.50052 20.2658 7.63902 19.8382 6.43069 19.376C5.69226 19.0986 5.00977 18.8098 4.38322 18.5093C3.77906 18.1858 3.2532 17.816 2.80567 17.4C2.35814 16.984 2.00011 16.4871 1.73159 15.9093C1.48545 15.3084 1.36238 14.5804 1.36238 13.7253C1.36238 12.0613 1.95536 10.7555 3.14132 9.80798C4.32728 8.83732 5.9384 8.35198 7.97467 8.35198C9.004 8.35198 9.98857 8.45598 10.9284 8.66398C11.8682 8.84887 12.5731 9.03376 13.043 9.21865L12.3046 12.616C11.857 12.408 11.2864 12.2231 10.5927 12.0613C9.89906 11.8764 9.09351 11.784 8.17606 11.784C7.34813 11.784 6.67683 11.9342 6.16217 12.2346C5.6475 12.512 5.39017 12.9511 5.39017 13.552C5.39017 13.8524 5.43493 14.1182 5.52443 14.3493C5.63632 14.5804 5.81533 14.8 6.06147 15.008C6.30761 15.1929 6.63208 15.3893 7.03486 15.5973C7.43763 15.7822 7.92992 15.9786 8.51171 16.1866C9.47391 16.5564 10.2907 16.9262 10.962 17.296C11.6333 17.6426 12.1815 18.0471 12.6066 18.5093C13.0542 18.9484 13.3786 19.4569 13.58 20.0346C13.7814 20.6124 13.8821 21.3058 13.8821 22.1146C13.8821 23.848 13.2556 25.1653 12.0025 26.0666C10.7718 26.9449 9.004 27.384 6.69921 27.384C5.15522 27.384 3.91331 27.2453 2.9735 26.968C2.03368 26.7138 1.37357 26.5058 0.993164 26.344L1.69803 22.8426C2.3022 23.0969 3.01825 23.3395 3.84618 23.5706C4.6965 23.8018 5.65869 23.9173 6.73277 23.9173Z" fill="url(#paint0_linear_2795_4579)"/>
<path d="M31.2362 26.3786C30.4531 26.5866 29.4349 26.7946 28.1818 27.0026C26.9287 27.2338 25.5526 27.3493 24.0533 27.3493C22.6436 27.3493 21.4576 27.1413 20.4954 26.7253C19.5556 26.3093 18.7948 25.7315 18.213 24.992C17.6536 24.2524 17.2508 23.3742 17.0047 22.3573C16.7586 21.3173 16.6355 20.1849 16.6355 18.96V8.80265H20.6968V18.3013C20.6968 20.2426 20.9654 21.6293 21.5024 22.4613C22.0618 23.2933 23.024 23.7093 24.389 23.7093C24.8813 23.7093 25.3959 23.6862 25.933 23.64C26.4924 23.5938 26.9064 23.536 27.1749 23.4666V8.80265H31.2362V26.3786Z" fill="url(#paint1_linear_2795_4579)"/>
<path d="M47.2134 17.816C47.2134 16.0364 46.8666 14.6266 46.1729 13.5866C45.5016 12.5466 44.4275 12.0266 42.9507 12.0266C42.2794 12.0266 41.6416 12.1306 41.0375 12.3386C40.4557 12.5466 39.9858 12.7778 39.6277 13.032V23.4666C39.9186 23.536 40.2878 23.6053 40.7354 23.6746C41.2053 23.7209 41.7647 23.744 42.4136 23.744C43.9129 23.744 45.0876 23.224 45.9379 22.184C46.7883 21.1209 47.2134 19.6649 47.2134 17.816ZM51.3755 17.8853C51.3755 19.3413 51.1629 20.6586 50.7377 21.8373C50.335 22.9929 49.742 23.9866 48.9588 24.8186C48.198 25.6506 47.2694 26.2862 46.1729 26.7253C45.0764 27.1644 43.8345 27.384 42.4472 27.384C41.1046 27.384 39.8179 27.28 38.5872 27.072C37.3789 26.864 36.3719 26.6329 35.5664 26.3786V0.725315L39.6277 0.0319824V9.42665C40.0976 9.17243 40.6682 8.94131 41.3395 8.73331C42.0332 8.52531 42.794 8.42131 43.622 8.42131C44.8527 8.42131 45.9491 8.65243 46.9113 9.11465C47.8959 9.55376 48.7126 10.1893 49.3616 11.0213C50.0105 11.8533 50.5028 12.8586 50.8384 14.0373C51.1965 15.1929 51.3755 16.4755 51.3755 17.8853Z" fill="url(#paint2_linear_2795_4579)"/>
<path d="M59.119 23.9173C60.1931 23.9173 60.9763 23.7902 61.4685 23.536C61.9608 23.2586 62.207 22.7964 62.207 22.1493C62.207 21.5484 61.9385 21.0515 61.4014 20.6586C60.8868 20.2658 60.0253 19.8382 58.8169 19.376C58.0785 19.0986 57.396 18.8098 56.7695 18.5093C56.1653 18.1858 55.6394 17.816 55.1919 17.4C54.7444 16.984 54.3863 16.4871 54.1178 15.9093C53.8717 15.3084 53.7486 14.5804 53.7486 13.7253C53.7486 12.0613 54.3416 10.7555 55.5276 9.80798C56.7135 8.83732 58.3246 8.35198 60.3609 8.35198C61.3902 8.35198 62.3748 8.45598 63.3146 8.66398C64.2544 8.84887 64.9593 9.03376 65.4292 9.21865L64.6908 12.616C64.2432 12.408 63.6726 12.2231 62.979 12.0613C62.2853 11.8764 61.4797 11.784 60.5623 11.784C59.7344 11.784 59.0631 11.9342 58.5484 12.2346C58.0337 12.512 57.7764 12.9511 57.7764 13.552C57.7764 13.8524 57.8212 14.1182 57.9107 14.3493C58.0225 14.5804 58.2016 14.8 58.4477 15.008C58.6938 15.1929 59.0183 15.3893 59.4211 15.5973C59.8239 15.7822 60.3162 15.9786 60.8979 16.1866C61.8601 16.5564 62.6769 16.9262 63.3482 17.296C64.0195 17.6426 64.5677 18.0471 64.9929 18.5093C65.4404 18.9484 65.7649 19.4569 65.9662 20.0346C66.1676 20.6124 66.2683 21.3058 66.2683 22.1146C66.2683 23.848 65.6418 25.1653 64.3887 26.0666C63.158 26.9449 61.3902 27.384 59.0854 27.384C57.5415 27.384 56.2995 27.2453 55.3597 26.968C54.4199 26.7138 53.7598 26.5058 53.3794 26.344L54.0843 22.8426C54.6884 23.0969 55.4045 23.3395 56.2324 23.5706C57.0827 23.8018 58.0449 23.9173 59.119 23.9173Z" fill="url(#paint3_linear_2795_4579)"/>
<path d="M85.0993 17.8506C85.0993 19.2835 84.8979 20.5893 84.4952 21.768C84.0924 22.9466 83.5218 23.952 82.7833 24.784C82.0449 25.616 81.1498 26.2631 80.0981 26.7253C79.0688 27.1875 77.9276 27.4186 76.6745 27.4186C75.4214 27.4186 74.2802 27.1875 73.2509 26.7253C72.2216 26.2631 71.3377 25.616 70.5993 24.784C69.8608 23.952 69.279 22.9466 68.8539 21.768C68.4511 20.5893 68.2497 19.2835 68.2497 17.8506C68.2497 16.4178 68.4511 15.1235 68.8539 13.968C69.279 12.7893 69.8608 11.784 70.5993 10.952C71.3601 10.12 72.2551 9.48443 73.2845 9.04531C74.3138 8.58309 75.4438 8.35198 76.6745 8.35198C77.9052 8.35198 79.0353 8.58309 80.0646 9.04531C81.1163 9.48443 82.0113 10.12 82.7498 10.952C83.4882 11.784 84.0588 12.7893 84.4616 13.968C84.8867 15.1235 85.0993 16.4178 85.0993 17.8506ZM80.9373 17.8506C80.9373 16.048 80.5569 14.6266 79.7961 13.5866C79.0576 12.5235 78.0171 11.992 76.6745 11.992C75.3319 11.992 74.2802 12.5235 73.5194 13.5866C72.781 14.6266 72.4118 16.048 72.4118 17.8506C72.4118 19.6764 72.781 21.1209 73.5194 22.184C74.2802 23.2471 75.3319 23.7786 76.6745 23.7786C78.0171 23.7786 79.0576 23.2471 79.7961 22.184C80.5569 21.1209 80.9373 19.6764 80.9373 17.8506Z" fill="url(#paint4_linear_2795_4579)"/>
<path d="M87.4709 17.8853C87.4709 16.5449 87.6723 15.2969 88.0751 14.1413C88.4778 12.9626 89.0484 11.9458 89.7869 11.0906C90.5477 10.2355 91.4651 9.56532 92.5392 9.07998C93.6133 8.59465 94.8216 8.35198 96.1642 8.35198C97.8201 8.35198 99.3865 8.66398 100.863 9.28798L99.9906 12.72C99.5207 12.512 98.9837 12.3386 98.3795 12.2C97.7977 12.0613 97.1712 11.992 96.4999 11.992C94.9111 11.992 93.7028 12.512 92.8749 13.552C92.0469 14.5689 91.6329 16.0133 91.6329 17.8853C91.6329 19.688 92.0245 21.1209 92.8077 22.184C93.5909 23.224 94.9111 23.744 96.7684 23.744C97.4621 23.744 98.1445 23.6746 98.8158 23.536C99.4871 23.3973 100.069 23.224 100.561 23.016L101.132 26.4826C100.684 26.7138 100.002 26.9218 99.0844 27.1066C98.1893 27.2915 97.2607 27.384 96.2985 27.384C94.7992 27.384 93.4902 27.1529 92.3714 26.6906C91.2749 26.2053 90.3575 25.5466 89.619 24.7146C88.903 23.8595 88.366 22.8542 88.0079 21.6986C87.6499 20.52 87.4709 19.2489 87.4709 17.8853Z" fill="url(#paint5_linear_2795_4579)"/>
<path d="M107.532 26.9333H103.471V8.80265H107.532V26.9333ZM107.968 3.49865C107.968 4.28443 107.722 4.90843 107.23 5.37065C106.738 5.83287 106.156 6.06398 105.485 6.06398C104.791 6.06398 104.198 5.83287 103.706 5.37065C103.213 4.90843 102.967 4.28443 102.967 3.49865C102.967 2.68976 103.213 2.0542 103.706 1.59198C104.198 1.12976 104.791 0.898648 105.485 0.898648C106.156 0.898648 106.738 1.12976 107.23 1.59198C107.722 2.0542 107.968 2.68976 107.968 3.49865Z" fill="url(#paint6_linear_2795_4579)"/>
<path d="M118.05 23.9866C119.303 23.9866 120.254 23.9173 120.903 23.7786V19.1333C120.679 19.064 120.355 18.9946 119.93 18.9253C119.505 18.856 119.035 18.8213 118.52 18.8213C118.073 18.8213 117.614 18.856 117.144 18.9253C116.696 18.9946 116.282 19.1218 115.902 19.3066C115.544 19.4915 115.253 19.7573 115.029 20.104C114.806 20.4275 114.694 20.8435 114.694 21.352C114.694 22.3458 114.996 23.0391 115.6 23.432C116.204 23.8018 117.021 23.9866 118.05 23.9866ZM117.714 8.35198C119.057 8.35198 120.187 8.52532 121.105 8.87198C122.022 9.21865 122.749 9.70398 123.286 10.328C123.846 10.952 124.237 11.7146 124.461 12.616C124.707 13.4942 124.83 14.4649 124.83 15.528V26.5173C124.204 26.656 123.253 26.8178 121.977 27.0026C120.724 27.2106 119.303 27.3146 117.714 27.3146C116.663 27.3146 115.701 27.2106 114.828 27.0026C113.955 26.7946 113.206 26.4595 112.579 25.9973C111.975 25.5351 111.494 24.9342 111.136 24.1946C110.8 23.4551 110.632 22.5422 110.632 21.456C110.632 20.416 110.822 19.5378 111.203 18.8213C111.606 18.1049 112.143 17.5271 112.814 17.088C113.485 16.6258 114.257 16.3022 115.13 16.1173C116.025 15.9093 116.954 15.8053 117.916 15.8053C118.363 15.8053 118.833 15.84 119.326 15.9093C119.818 15.9555 120.344 16.048 120.903 16.1866V15.4933C120.903 15.008 120.847 14.5458 120.735 14.1066C120.623 13.6675 120.422 13.2862 120.131 12.9626C119.863 12.616 119.493 12.3502 119.024 12.1653C118.576 11.9804 118.005 11.888 117.312 11.888C116.372 11.888 115.51 11.9573 114.727 12.096C113.944 12.2346 113.306 12.3964 112.814 12.5813L112.311 9.18398C112.825 8.99909 113.575 8.8142 114.559 8.62932C115.544 8.44443 116.596 8.35198 117.714 8.35198Z" fill="url(#paint7_linear_2795_4579)"/>
<path d="M128.898 26.9333V0.725315L132.959 0.0319824V26.9333H128.898Z" fill="url(#paint8_linear_2795_4579)"/>
<defs>
<linearGradient id="paint0_linear_2795_4579" x1="68.0481" y1="-5.86668" x2="68.0481" y2="34" gradientUnits="userSpaceOnUse">
<stop offset="0.109978" stop-color="#F40183"/>
<stop offset="1" stop-color="#7D0495"/>
</linearGradient>
<linearGradient id="paint1_linear_2795_4579" x1="68.0481" y1="-5.86668" x2="68.0481" y2="34" gradientUnits="userSpaceOnUse">
<stop offset="0.109978" stop-color="#F40183"/>
<stop offset="1" stop-color="#7D0495"/>
</linearGradient>
<linearGradient id="paint2_linear_2795_4579" x1="68.0481" y1="-5.86668" x2="68.0481" y2="34" gradientUnits="userSpaceOnUse">
<stop offset="0.109978" stop-color="#F40183"/>
<stop offset="1" stop-color="#7D0495"/>
</linearGradient>
<linearGradient id="paint3_linear_2795_4579" x1="68.0481" y1="-5.86668" x2="68.0481" y2="34" gradientUnits="userSpaceOnUse">
<stop offset="0.109978" stop-color="#F40183"/>
<stop offset="1" stop-color="#7D0495"/>
</linearGradient>
<linearGradient id="paint4_linear_2795_4579" x1="68.0481" y1="-5.86668" x2="68.0481" y2="34" gradientUnits="userSpaceOnUse">
<stop offset="0.109978" stop-color="#F40183"/>
<stop offset="1" stop-color="#7D0495"/>
</linearGradient>
<linearGradient id="paint5_linear_2795_4579" x1="68.0481" y1="-5.86668" x2="68.0481" y2="34" gradientUnits="userSpaceOnUse">
<stop offset="0.109978" stop-color="#F40183"/>
<stop offset="1" stop-color="#7D0495"/>
</linearGradient>
<linearGradient id="paint6_linear_2795_4579" x1="68.0481" y1="-5.86668" x2="68.0481" y2="34" gradientUnits="userSpaceOnUse">
<stop offset="0.109978" stop-color="#F40183"/>
<stop offset="1" stop-color="#7D0495"/>
</linearGradient>
<linearGradient id="paint7_linear_2795_4579" x1="68.0481" y1="-5.86668" x2="68.0481" y2="34" gradientUnits="userSpaceOnUse">
<stop offset="0.109978" stop-color="#F40183"/>
<stop offset="1" stop-color="#7D0495"/>
</linearGradient>
<linearGradient id="paint8_linear_2795_4579" x1="68.0481" y1="-5.86668" x2="68.0481" y2="34" gradientUnits="userSpaceOnUse">
<stop offset="0.109978" stop-color="#F40183"/>
<stop offset="1" stop-color="#7D0495"/>
</linearGradient>
</defs>
</svg>
