<svg width="30" height="30" viewBox="0 0 30 30" fill="none" xmlns="http://www.w3.org/2000/svg">
<circle cx="15" cy="15" r="15" fill="#F0F0F0"/>
<g clip-path="url(#clip0_3378_5419)">
<path d="M23.0011 10.8493C22.4433 11.094 21.8489 11.2562 21.2292 11.3349C21.8667 10.9543 22.3533 10.3562 22.582 9.63524C21.9877 9.98962 21.3314 10.2399 20.632 10.3796C20.0677 9.77868 19.2633 9.40649 18.3858 9.40649C16.6833 9.40649 15.3127 10.7884 15.3127 12.4824C15.3127 12.7262 15.3333 12.9606 15.3839 13.1837C12.8273 13.059 10.5652 11.8337 9.04547 9.96712C8.78016 10.4274 8.62454 10.9543 8.62454 11.5215C8.62454 12.5865 9.17297 13.5306 9.99047 14.0771C9.49641 14.0677 9.01172 13.9243 8.6011 13.6984C8.6011 13.7077 8.6011 13.7199 8.6011 13.7321C8.6011 15.2265 9.66704 16.4677 11.0648 16.7537C10.8145 16.8221 10.5417 16.8549 10.2586 16.8549C10.0617 16.8549 9.86297 16.8437 9.67641 16.8024C10.0748 18.0202 11.2055 18.9156 12.5498 18.9446C11.5036 19.7631 10.1752 20.2562 8.73704 20.2562C8.48485 20.2562 8.24297 20.2449 8.0011 20.214C9.36329 21.0924 10.9777 21.594 12.7186 21.594C18.3773 21.594 21.4711 16.9065 21.4711 12.8434C21.4711 12.7074 21.4664 12.5762 21.4598 12.4459C22.0702 12.0127 22.583 11.4718 23.0011 10.8493Z" fill="#888888"/>
</g>
<defs>
<clipPath id="clip0_3378_5419">
<rect width="15" height="15" fill="white" transform="translate(8.0011 8.00024)"/>
</clipPath>
</defs>
</svg>
