<svg width="15" height="15" viewBox="0 0 15 15" fill="none" xmlns="http://www.w3.org/2000/svg">
<g clip-path="url(#clip0_3306_4411)">
<path d="M15.001 2.84926C14.4432 3.09395 13.8488 3.25614 13.2291 3.33489C13.8666 2.95426 14.3532 2.35614 14.5819 1.6352C13.9875 1.98957 13.3313 2.23989 12.6319 2.37957C12.0675 1.77864 11.2632 1.40645 10.3857 1.40645C8.68316 1.40645 7.31254 2.78832 7.31254 4.48239C7.31254 4.72614 7.33316 4.96051 7.38379 5.18364C4.82723 5.05895 2.56504 3.83364 1.04535 1.96707C0.780039 2.42739 0.624414 2.95426 0.624414 3.52145C0.624414 4.58645 1.17285 5.53051 1.99035 6.07707C1.49629 6.0677 1.0116 5.92426 0.600977 5.69832C0.600977 5.7077 0.600977 5.71989 0.600977 5.73207C0.600977 7.22645 1.66691 8.4677 3.06473 8.75364C2.81441 8.82207 2.5416 8.85489 2.25848 8.85489C2.0616 8.85489 1.86285 8.84364 1.67629 8.80239C2.07473 10.0202 3.20535 10.9155 4.54973 10.9446C3.50348 11.763 2.17504 12.2561 0.736914 12.2561C0.484727 12.2561 0.242852 12.2449 0.000976562 12.2139C1.36316 13.0924 2.97754 13.5939 4.71848 13.5939C10.3772 13.5939 13.471 8.90645 13.471 4.84332C13.471 4.70739 13.4663 4.57614 13.4597 4.44582C14.07 4.0127 14.5829 3.47176 15.001 2.84926Z" fill="#888888"/>
</g>
<defs>
<clipPath id="clip0_3306_4411">
<rect width="15" height="15" fill="white" transform="translate(0.000976562 0.000198364)"/>
</clipPath>
</defs>
</svg>
