<svg width="20" height="20" viewBox="0 0 20 20" fill="none" xmlns="http://www.w3.org/2000/svg">
<path d="M9.99 3.05176e-05C4.47 3.05176e-05 0 4.48003 0 10C0 15.52 4.47 20 9.99 20C15.52 20 20 15.52 20 10C20 4.48003 15.52 3.05176e-05 9.99 3.05176e-05ZM16.92 6.00003H13.97C13.65 4.75003 13.19 3.55003 12.59 2.44003C14.43 3.07003 15.96 4.35003 16.92 6.00003ZM10 2.04003C10.83 3.24003 11.48 4.57003 11.91 6.00003H8.09C8.52 4.57003 9.17 3.24003 10 2.04003ZM2.26 12C2.1 11.36 2 10.69 2 10C2 9.31003 2.1 8.64003 2.26 8.00003H5.64C5.56 8.66003 5.5 9.32003 5.5 10C5.5 10.68 5.56 11.34 5.64 12H2.26ZM3.08 14H6.03C6.35 15.25 6.81 16.45 7.41 17.56C5.57 16.93 4.04 15.66 3.08 14ZM6.03 6.00003H3.08C4.04 4.34003 5.57 3.07003 7.41 2.44003C6.81 3.55003 6.35 4.75003 6.03 6.00003ZM10 17.96C9.17 16.76 8.52 15.43 8.09 14H11.91C11.48 15.43 10.83 16.76 10 17.96ZM12.34 12H7.66C7.57 11.34 7.5 10.68 7.5 10C7.5 9.32003 7.57 8.65003 7.66 8.00003H12.34C12.43 8.65003 12.5 9.32003 12.5 10C12.5 10.68 12.43 11.34 12.34 12ZM12.59 17.56C13.19 16.45 13.65 15.25 13.97 14H16.92C15.96 15.65 14.43 16.93 12.59 17.56ZM14.36 12C14.44 11.34 14.5 10.68 14.5 10C14.5 9.32003 14.44 8.66003 14.36 8.00003H17.74C17.9 8.64003 18 9.31003 18 10C18 10.69 17.9 11.36 17.74 12H14.36Z" fill="#1A1A1A"/>
</svg>
